<?xml version="1.0" encoding="UTF-8" standalone="no"?>
<!DOCTYPE svg PUBLIC "-//W3C//DTD SVG 1.1//EN" "http://www.w3.org/Graphics/SVG/1.1/DTD/svg11.dtd">
<svg width="100%" height="100%" viewBox="0 0 32 27" version="1.1" xmlns="http://www.w3.org/2000/svg" xmlns:xlink="http://www.w3.org/1999/xlink" xml:space="preserve" xmlns:serif="http://www.serif.com/" style="fill-rule:evenodd;clip-rule:evenodd;stroke-miterlimit:22.9256;">
    <g transform="matrix(1,0,0,1,-1308.84,-11266.5)">
        <path d="M1316.69,11274L1309.89,11274L1309.89,11288.8C1309.89,11290.7 1311.41,11292.2 1313.29,11292.2C1315.17,11292.2 1316.69,11290.7 1316.69,11288.8L1316.69,11267.6L1339.8,11267.6L1339.82,11288.8C1339.82,11290.7 1338.3,11292.2 1336.42,11292.2L1313.29,11292.2" style="fill:none;fill-rule:nonzero;stroke:rgb(254,254,254);stroke-width:2px;"/>
    </g>
    <g transform="matrix(1,0,0,1,-1308.84,-11278.4)">
        <path d="M1322.01,11285.9L1334.17,11285.9" style="fill:none;fill-rule:nonzero;stroke:rgb(254,254,254);stroke-width:2px;"/>
    </g>
    <g transform="matrix(1,0,0,1,-1308.84,-11267)">
        <path d="M1322.01,11280.2L1326.86,11280.2" style="fill:none;fill-rule:nonzero;stroke:rgb(254,254,254);stroke-width:2px;"/>
    </g>
    <g transform="matrix(1,0,0,1,-1308.84,-11255.5)">
        <path d="M1322.01,11274.5L1326.86,11274.5" style="fill:none;fill-rule:nonzero;stroke:rgb(254,254,254);stroke-width:2px;"/>
    </g>
    <g transform="matrix(1,0,0,1,-1308.84,-11267)">
        <path d="M1329.32,11280.2L1334.17,11280.2" style="fill:none;fill-rule:nonzero;stroke:rgb(254,254,254);stroke-width:2px;"/>
    </g>
    <g transform="matrix(1,0,0,1,-1308.84,-11255.5)">
        <path d="M1329.32,11274.5L1334.17,11274.5" style="fill:none;fill-rule:nonzero;stroke:rgb(254,254,254);stroke-width:2px;"/>
    </g>
</svg>
