<?xml version="1.0" encoding="UTF-8" standalone="no"?>
<!DOCTYPE svg PUBLIC "-//W3C//DTD SVG 1.1//EN" "http://www.w3.org/Graphics/SVG/1.1/DTD/svg11.dtd">
<svg width="100%" height="100%" viewBox="0 0 25 14" version="1.1" xmlns="http://www.w3.org/2000/svg" xmlns:xlink="http://www.w3.org/1999/xlink" xml:space="preserve" xmlns:serif="http://www.serif.com/" style="fill-rule:evenodd;clip-rule:evenodd;stroke-linejoin:round;stroke-miterlimit:2;">
    <g transform="matrix(1,0,0,1,-786.999,-5359.51)">
        <path d="M793.599,5372.71C789.951,5372.71 786.999,5369.76 786.999,5366.11C786.999,5362.47 789.951,5359.51 793.599,5359.51L806.199,5359.51C808.851,5359.51 811,5361.66 811,5364.31C811,5366.97 808.851,5369.11 806.199,5369.11L795.999,5369.11C794.343,5369.11 793,5367.77 793,5366.11C793,5364.46 794.343,5363.11 795.999,5363.11L804.999,5363.11L804.999,5364.91L795.999,5364.91C795.339,5364.91 794.799,5365.45 794.799,5366.11C794.799,5366.78 795.339,5367.31 795.999,5367.31L806.199,5367.31C807.855,5367.31 809.199,5365.97 809.199,5364.31C809.199,5362.66 807.855,5361.32 806.199,5361.32L793.599,5361.31C790.947,5361.31 788.799,5363.46 788.799,5366.11C788.799,5368.77 790.947,5370.91 793.599,5370.91L804.999,5370.91L804.999,5372.72L793.599,5372.71Z" style="fill:rgb(197,40,40);"/>
    </g>
</svg>
