<?xml version="1.0" encoding="UTF-8" standalone="no"?>
<!DOCTYPE svg PUBLIC "-//W3C//DTD SVG 1.1//EN" "http://www.w3.org/Graphics/SVG/1.1/DTD/svg11.dtd">
<svg width="100%" height="100%" viewBox="0 0 104 54" version="1.1" xmlns="http://www.w3.org/2000/svg" xmlns:xlink="http://www.w3.org/1999/xlink" xml:space="preserve" xmlns:serif="http://www.serif.com/" style="fill-rule:evenodd;clip-rule:evenodd;stroke-linejoin:round;stroke-miterlimit:2;">
    <g transform="matrix(1,0,0,1,-465.52,-10454.6)">
        <path d="M486.447,10491.3L480.902,10491.3C480.782,10492.1 480.046,10496.7 479.827,10497C479.646,10497.2 479.427,10497.3 478.975,10497.4C478.647,10497.4 478.297,10497.5 477.953,10497.6C477.249,10497.7 476.307,10497.8 475.579,10497.7C474.075,10497.7 473.162,10496.9 472.768,10495.6C472.143,10493.7 473.068,10488.9 473.715,10487.1C474.587,10484.7 475.994,10483 479.019,10482.6C481.359,10482.4 483.328,10482.5 485.513,10483.3C486.191,10483.5 486.731,10483.8 487.4,10484L487.324,10479.1C485.334,10478.3 480.974,10478 478.595,10478.1C472.919,10478.2 469.126,10480.8 467.037,10486C466.245,10488 465.475,10491.9 465.522,10494.3C465.654,10501 470.545,10502.4 477.249,10501.9C479.797,10501.6 481.881,10501.2 484.215,10500.3C484.604,10500.2 484.83,10500.1 484.962,10499.8L486.447,10491.3ZM498.089,10484.5C492.369,10484.9 489.354,10487.9 488.343,10493.1C486.986,10500 490.591,10502.4 497.32,10502C503.211,10501.6 505.986,10498.6 506.966,10493.3C507.487,10490.5 507.338,10487.6 505.528,10486.1C503.874,10484.6 500.795,10484.2 498.089,10484.5" style="fill:rgb(68,68,69);"/>
    </g>
    <g transform="matrix(1,0,0,1,-465.52,-10495.8)">
        <path d="M481.131,10510.5L485.861,10513.8C489.908,10516.7 493.819,10519.4 497.618,10522.4C498.7,10523.2 498.666,10523.5 500.616,10523.3C500.004,10522.2 490.928,10515 489.357,10513.8C488.89,10513.4 485.631,10511 485.462,10510.7C485.916,10509.9 495.128,10499.4 495.35,10498.7C494.981,10498.4 493.02,10496.8 492.596,10496.6L489.723,10500.1C488.817,10501.2 481.218,10510.1 481.131,10510.5ZM494.352,10510.9C494.525,10511.2 494.982,10511.5 495.282,10511.8C499.072,10514.9 503.808,10520.1 506.918,10523.9C507.27,10524.3 508.156,10525.5 508.546,10525.8C508.771,10525.5 508.747,10525.1 508.837,10524.6C508.951,10524 509.107,10523.9 508.751,10523.4C507.575,10521.6 506.007,10519.6 504.652,10517.9C503.334,10516.3 501.715,10514.5 500.203,10512.9C499.743,10512.4 498.951,10511.8 498.653,10511.2L505.04,10503.6C505.556,10502.9 506.782,10501.6 507.154,10501C508.577,10501.4 513.982,10507.2 515.159,10508.6C516.285,10509.8 517.53,10511.4 518.582,10512.8C519.612,10514.2 520.962,10516 521.717,10517.5L522.503,10517.5C522.081,10515.1 517.049,10507.8 515.572,10505.9C514.694,10504.7 508.179,10496.6 506.987,10495.8C506.597,10496.1 505.831,10497.1 505.39,10497.7C504.261,10499 494.623,10510.4 494.352,10510.9ZM487.667,10510.7C487.955,10511 488.324,10511.2 488.766,10511.5C492.059,10513.9 497.534,10518.6 500.649,10521.5C502.956,10523.6 502.027,10523.3 504.128,10524C504.707,10524.1 505.124,10524.4 505.621,10524.5C504.954,10523.3 500.287,10518.4 499.226,10517.4C498.023,10516.3 497.116,10515.4 495.72,10514.2C494.346,10513 493.05,10512 491.993,10511C492.263,10510.5 492.825,10510 493.26,10509.4L502.187,10498.7L499.528,10496.5L496.54,10500C495.628,10501.1 494.549,10502.5 493.561,10503.6L487.667,10510.7Z" style="fill:rgb(63,172,73);"/>
    </g>
    <g transform="matrix(1,0,0,1,-465.52,-10448.6)">
        <path d="M497.738,10482C496.355,10482.3 495.813,10483 495.306,10484C494.498,10485.6 493.665,10489.9 494.493,10491.4C495.035,10492.4 496.281,10492.8 497.76,10492.5C500.189,10492 500.674,10489 501.021,10486.9C501.215,10485.7 501.537,10484.2 500.976,10483.1C500.469,10482.1 499.219,10481.7 497.738,10482" style="fill:rgb(242,241,241);"/>
    </g>
    <g transform="matrix(1,0,0,1,-465.52,-10448.3)">
        <path d="M542.216,10487.4C540.375,10488.6 540.476,10488.3 538.291,10488.8C537.557,10489 536.879,10489.2 536.49,10489.7C536.087,10490.2 535.823,10491.2 536.424,10491.7C537.425,10492.4 539.873,10491.7 540.634,10491.2C541.797,10490.4 542.097,10489.1 542.216,10487.4ZM539.436,10485.5C538.045,10485.3 534.637,10486.4 533.714,10487C532.425,10487.8 531.024,10489.5 531.422,10491.8C531.793,10493.9 533.095,10494.9 535.199,10495.3C536.19,10495.4 537.631,10495.3 538.553,10495.1C539.048,10494.9 539.445,10494.8 539.816,10494.6C540.196,10494.3 540.567,10494 541.054,10493.8L540.888,10495.1L547.182,10494.9L547.895,10491.1C548.059,10490.2 548.586,10487.8 548.529,10487.1C548.545,10487.1 548.564,10487 548.569,10487L549.162,10483.9C549.821,10480.1 547.221,10478.8 543.382,10478.6C540.93,10478.4 538.673,10478.7 536.612,10479.4C535.094,10479.9 535.24,10479.9 534.634,10481.2C534.245,10482 533.856,10482.8 533.444,10483.7C533.576,10483.7 535.49,10482.6 536.575,10482.3C540.246,10481.1 544.413,10482 542.735,10484C542.202,10484.6 541.278,10484.9 540.409,10485.2C539.926,10485.3 539.742,10485.2 539.436,10485.5ZM509.255,10488L507.972,10495L515.311,10495C515.462,10493.9 515.695,10492.9 515.889,10491.7C516.016,10491 516.468,10489 516.408,10488.4C516.704,10488 516.715,10487.1 516.827,10486.6C519.52,10486 525.988,10487.8 529.745,10483.6C530.314,10482.9 531.611,10480.8 531.419,10479.9C531.81,10479.5 533.527,10472.7 525.913,10472.3C523.698,10472.2 521.285,10472.3 519.049,10472.3C517.661,10472.3 513.111,10472.1 512.082,10472.3L509.919,10484.3L509.255,10488ZM524.335,10480.3C523.94,10480.9 524.058,10481.2 523.363,10481.8C522.949,10482.2 522.257,10482.5 521.629,10482.6C520.534,10482.7 518.712,10482.7 517.569,10482.6L518.672,10476.1C519.727,10475.9 522.659,10476 523.435,10476.5C524.769,10477.3 524.541,10478.9 524.335,10480.3ZM564.151,10487.8C564.502,10487.5 565.336,10485.9 565.554,10485.6L569.479,10478.8L564.688,10478.8L560.779,10485.5C560.729,10485.5 560.705,10485.4 560.698,10485.4L560.543,10485.1C560.508,10485 560.452,10484.8 560.432,10484.7L559.741,10482.2C559.573,10481.5 559.001,10479.2 558.772,10478.8L552.075,10478.8C552.145,10479.4 553.924,10485.1 554.396,10486.6C554.427,10486.7 554.433,10486.7 554.478,10486.8L554.655,10487.1C554.623,10487.5 555.933,10491.6 556.24,10492.6C556.531,10493.5 556.285,10493.5 555.813,10494.2C555.259,10495.1 554.598,10496.3 553.803,10496.9C552.309,10498 551.574,10497.5 549.824,10497.5L549.596,10501.5C551.496,10502 554.112,10501.5 555.577,10500.7C557.092,10499.8 557.955,10498.5 558.932,10496.8C559.863,10495.3 560.687,10493.9 561.585,10492.3C561.945,10491.7 564.15,10488.1 564.151,10487.8" style="fill:rgb(63,172,73);"/>
    </g>
</svg>
