<?xml version="1.0" encoding="UTF-8" standalone="no"?>
<!DOCTYPE svg PUBLIC "-//W3C//DTD SVG 1.1//EN" "http://www.w3.org/Graphics/SVG/1.1/DTD/svg11.dtd">
<svg width="100%" height="100%" viewBox="0 0 170 40" version="1.1" xmlns="http://www.w3.org/2000/svg" xmlns:xlink="http://www.w3.org/1999/xlink" xml:space="preserve" xmlns:serif="http://www.serif.com/" style="fill-rule:evenodd;clip-rule:evenodd;stroke-linejoin:round;stroke-miterlimit:2;">
    <g transform="matrix(1,0,0,1,-432.615,-11073.8)">
        <path d="M464.562,11082.2C463.825,11083.3 462.841,11084.6 461.735,11086.2C454.977,11095.2 451.906,11102.1 450.677,11105.4C451.537,11105.7 452.397,11106 453.012,11106.8C454.732,11102.8 459.155,11094 464.684,11089.5C466.159,11088.3 467.51,11087.3 468.739,11086.4C466.773,11085.7 465.298,11084.1 464.562,11082.2ZM441.216,11100.1C440.97,11099.6 440.847,11099.2 440.847,11098.7C439.864,11099.5 438.513,11100 437.284,11100L436.916,11100C437.653,11100.8 438.513,11101.9 439.372,11103C441.216,11105.2 443.181,11107.3 445.393,11109.1C445.516,11108.2 446.008,11107.4 446.622,11106.8C444.288,11104.8 441.953,11102.4 441.216,11100.1" style="fill:rgb(43,184,235);fill-rule:nonzero;"/>
    </g>
    <g transform="matrix(1,0,0,1,-432.615,-11077.5)">
        <path d="M437.284,11093.3C434.704,11093.3 432.615,11095.3 432.615,11097.9C432.615,11100.4 434.704,11102.5 437.284,11102.5C439.864,11102.5 441.953,11100.4 441.953,11097.9C441.953,11095.3 439.864,11093.3 437.284,11093.3ZM519.329,11110.2L513.937,11102.6L518.81,11096.9L515.7,11096.9L511.552,11101.6L511.552,11091.5L508.96,11091.5L508.96,11110.1L511.552,11110.1L511.552,11105.2L512.279,11104.4L516.219,11110.1L519.329,11110.1L519.329,11110.2ZM506.057,11096.9L503.879,11096.9L503.879,11098.6C502.739,11097.4 501.184,11096.7 499.421,11096.7C495.688,11096.7 492.68,11099.7 492.68,11103.5C492.68,11107.3 495.688,11110.4 499.421,11110.4C501.184,11110.4 502.739,11109.6 503.879,11108.5L503.879,11110.2L506.057,11110.2L506.057,11096.9ZM499.421,11107.6C497.14,11107.6 495.377,11105.7 495.377,11103.4C495.377,11101.1 497.243,11099.2 499.421,11099.2C501.702,11099.2 503.464,11101.1 503.464,11103.4C503.568,11105.9 501.702,11107.6 499.421,11107.6ZM490.296,11094C490.296,11095 489.57,11095.7 488.741,11095.7C487.911,11095.7 487.185,11095 487.185,11094.1C487.185,11093.2 487.911,11092.5 488.741,11092.5C489.57,11092.5 490.296,11093.2 490.296,11094ZM489.985,11109.4C489.985,11112.2 488.741,11114.4 486.045,11115.7L484.697,11113.4C486.252,11112.5 487.393,11111.2 487.393,11109.5L487.393,11097L489.985,11097L489.985,11109.4ZM471.442,11077.5C468.125,11077.5 465.544,11080.2 465.544,11083.4C465.544,11086.7 468.125,11089.2 471.442,11089.4C474.76,11089.4 477.34,11086.7 477.34,11083.5C477.34,11080.2 474.637,11077.5 471.442,11077.5ZM471.442,11086.4C469.845,11086.4 468.493,11085.1 468.493,11083.5C468.493,11081.8 469.845,11080.5 471.442,11080.5C473.04,11080.5 474.391,11081.8 474.391,11083.4C474.391,11085.1 473.04,11086.4 471.442,11086.4ZM449.817,11110.2C447.851,11110.2 446.13,11111.8 446.254,11113.8C446.376,11115.9 447.851,11117.5 449.94,11117.5C451.906,11117.5 453.503,11115.9 453.503,11113.8C453.38,11111.8 451.783,11110.2 449.817,11110.2ZM449.817,11115.2C449.08,11115.2 448.342,11114.6 448.342,11113.7C448.342,11113 448.957,11112.3 449.817,11112.3C450.554,11112.3 451.291,11112.9 451.291,11113.7C451.168,11114.5 450.554,11115.2 449.817,11115.2ZM437.284,11100C436.055,11100 435.195,11099 435.195,11097.9C435.195,11096.7 436.178,11095.8 437.284,11095.7C438.513,11095.7 439.373,11096.7 439.373,11097.8C439.373,11099 438.39,11100 437.284,11100" style="fill:rgb(122,41,133);fill-rule:nonzero;"/>
    </g>
    <g transform="matrix(1,0,0,1,-432.615,-11070.6)">
        <path d="M526.587,11089.7C522.854,11089.7 519.951,11092.8 519.951,11096.6C519.951,11100.4 522.958,11103.4 526.587,11103.4C528.35,11103.4 529.906,11102.7 531.046,11101.5L531.046,11103.2L533.224,11103.2L533.224,11084.6L530.631,11084.6L530.631,11091.3C529.594,11090.3 528.143,11089.7 526.587,11089.7ZM526.587,11100.7C524.306,11100.7 522.544,11098.8 522.544,11096.6C522.544,11094.2 524.41,11092.3 526.587,11092.3C528.869,11092.3 530.631,11094.2 530.631,11096.6C530.631,11098.8 528.869,11100.7 526.587,11100.7" style="fill:rgb(43,184,235);fill-rule:nonzero;"/>
    </g>
    <g transform="matrix(1,0,0,1,-432.615,-11065.5)">
        <path d="M542.348,11084.6C538.615,11084.6 535.712,11087.7 535.712,11091.5C535.712,11095.3 538.719,11098.4 542.348,11098.4C546.081,11098.4 548.985,11095.3 548.985,11091.5C549.088,11087.7 546.081,11084.6 542.348,11084.6ZM542.348,11087.3C544.63,11087.3 546.392,11089.2 546.392,11091.5C546.392,11093.8 544.526,11095.7 542.348,11095.7C540.067,11095.7 538.305,11093.8 538.305,11091.5C538.305,11089.2 540.171,11087.3 542.348,11087.3" style="fill:rgb(43,184,235);fill-rule:nonzero;"/>
    </g>
    <g transform="matrix(1,0,0,1,-432.615,-11064.5)">
        <path d="M555.102,11081C555.102,11081.9 554.377,11082.6 553.546,11082.6C552.717,11082.6 551.991,11081.9 551.991,11081.1C551.991,11080.1 552.717,11079.4 553.546,11079.4C554.377,11079.4 555.102,11080.1 555.102,11081ZM554.791,11096.4C554.791,11099.1 553.546,11101.3 550.851,11102.6L549.503,11100.4C551.058,11099.4 552.199,11098.1 552.199,11096.5L552.199,11083.9L554.791,11083.9L554.791,11096.4Z" style="fill:rgb(43,184,235);fill-rule:nonzero;"/>
    </g>
    <g transform="matrix(1,0,0,1,-432.615,-11065.5)">
        <path d="M570.966,11084.9L568.789,11084.9L568.789,11086.5C567.648,11085.4 566.094,11084.6 564.33,11084.6C560.598,11084.6 557.59,11087.7 557.59,11091.5C557.59,11095.3 560.598,11098.4 564.33,11098.4C566.094,11098.4 567.648,11097.6 568.789,11096.5L568.789,11098.1L570.966,11098.1L570.966,11084.9ZM564.33,11095.6C562.049,11095.6 560.287,11093.7 560.287,11091.4C560.287,11089.1 562.153,11087.2 564.33,11087.2C566.612,11087.2 568.374,11089.1 568.374,11091.4C568.374,11093.8 566.508,11095.6 564.33,11095.6" style="fill:rgb(43,184,235);fill-rule:nonzero;"/>
    </g>
    <g transform="matrix(1,0,0,1,-432.615,-11070.6)">
        <path d="M580.092,11089.7C576.358,11089.7 573.455,11092.8 573.455,11096.6C573.455,11100.4 576.462,11103.4 580.092,11103.4C581.854,11103.4 583.41,11102.7 584.55,11101.5L584.55,11103.2L586.728,11103.2L586.728,11084.6L584.135,11084.6L584.135,11091.3C583.098,11090.3 581.647,11089.7 580.092,11089.7ZM580.092,11100.7C577.81,11100.7 576.048,11098.8 576.048,11096.6C576.048,11094.2 577.914,11092.3 580.092,11092.3C582.373,11092.3 584.135,11094.2 584.135,11096.6C584.135,11098.8 582.373,11100.7 580.092,11100.7" style="fill:rgb(43,184,235);fill-rule:nonzero;"/>
    </g>
    <g transform="matrix(1,0,0,1,-432.615,-11065.5)">
        <path d="M602.385,11092.3C602.385,11087.7 599.585,11084.6 595.852,11084.6C592.223,11084.6 589.32,11087.5 589.32,11091.3C589.32,11095 592.12,11098.4 596.06,11098.4C597.822,11098.4 599.792,11097.6 601.555,11095.9L600,11094C599.066,11094.9 597.718,11095.8 596.163,11095.8C594.297,11095.8 592.534,11094.6 592.016,11092.5L602.385,11092.5L602.385,11092.3ZM592.016,11090.2C592.326,11088.2 593.986,11087 595.852,11087C597.822,11087 599.378,11088.4 599.688,11090.2L592.016,11090.2Z" style="fill:rgb(43,184,235);fill-rule:nonzero;"/>
    </g>
</svg>
