<?xml version="1.0" encoding="UTF-8" standalone="no"?>
<!DOCTYPE svg PUBLIC "-//W3C//DTD SVG 1.1//EN" "http://www.w3.org/Graphics/SVG/1.1/DTD/svg11.dtd">
<svg width="100%" height="100%" viewBox="0 0 134 41" version="1.1" xmlns="http://www.w3.org/2000/svg" xmlns:xlink="http://www.w3.org/1999/xlink" xml:space="preserve" xmlns:serif="http://www.serif.com/" style="fill-rule:evenodd;clip-rule:evenodd;stroke-linejoin:round;stroke-miterlimit:2;">
    <g transform="matrix(1,0,0,1,-450.735,-10573.8)">
        <path d="M552.275,10599.1C545.114,10608.2 525.749,10614.6 502.986,10614.6C474.134,10614.6 450.735,10604.2 450.735,10591.4C450.735,10584.4 457.72,10578.1 468.762,10573.9C461.336,10578.2 456.97,10583.5 457.188,10589.2C457.683,10602 481.465,10611.5 510.295,10610.4C527.727,10609.7 543.016,10605.3 552.275,10599.1ZM584.264,10574L568.958,10574L568.958,10578.6L574.031,10578.6L574.031,10597.2L579.133,10597.2L579.133,10578.6L584.264,10578.6L584.264,10574ZM567.305,10592.8L559.68,10592.8L559.68,10587.4L566.493,10587.4L566.493,10583.1L559.68,10583.1L559.68,10578.4L566.87,10578.4L566.87,10574L554.578,10574L554.578,10597.2L567.305,10597.2L567.305,10592.8ZM535.474,10574L530.371,10574L530.371,10579.1L535.474,10579.1L535.474,10574Z" style="fill:rgb(13,97,163);"/>
    </g>
    <g transform="matrix(1,0,0,1,-450.735,-10590.9)">
        <path d="M551.795,10609.8L544.374,10609.8L544.374,10591.1L539.271,10591.1L539.271,10614.3L551.795,10614.3L551.795,10609.8ZM535.474,10598.8L530.371,10598.8L530.371,10614.3L535.474,10614.3L535.474,10598.8ZM517.065,10604.2L518.369,10604.2C518.838,10604.2 519.297,10604.2 519.742,10604.4C520.186,10604.5 520.592,10604.6 520.949,10604.9C521.312,10605.1 521.597,10605.5 521.81,10605.9C522.022,10606.3 522.133,10606.8 522.138,10607.4C522.133,10607.9 522.036,10608.4 521.843,10608.8C521.645,10609.2 521.379,10609.5 521.041,10609.8C520.703,10610.1 520.312,10610.3 519.877,10610.4C519.437,10610.5 518.974,10610.6 518.486,10610.6C518.186,10610.6 517.92,10610.6 517.688,10610.6C517.456,10610.5 517.249,10610.5 517.065,10610.5L517.065,10604.2ZM517.065,10600.4L517.065,10595C517.234,10594.9 517.451,10594.9 517.712,10594.9C517.973,10594.8 518.302,10594.8 518.688,10594.8C519.263,10594.8 519.771,10594.9 520.215,10595.1C520.659,10595.3 521.007,10595.6 521.259,10596C521.51,10596.4 521.641,10596.9 521.645,10597.5C521.645,10598.1 521.51,10598.6 521.244,10599C520.979,10599.4 520.592,10599.8 520.085,10600C519.582,10600.3 518.968,10600.4 518.254,10600.4L517.065,10600.4ZM523.24,10601.9C524.042,10601.5 524.694,10601.1 525.207,10600.6C525.713,10600 526.09,10599.5 526.332,10598.8C526.573,10598.2 526.689,10597.5 526.689,10596.9C526.685,10595.9 526.477,10595 526.076,10594.2C525.67,10593.5 525.1,10592.8 524.37,10592.4C523.824,10592 523.23,10591.7 522.592,10591.5C521.955,10591.3 521.259,10591.1 520.51,10591.1C519.756,10591 518.94,10590.9 518.05,10590.9C517.263,10590.9 516.49,10591 515.732,10591C514.978,10591.1 514.277,10591.1 513.634,10591.2C512.992,10591.3 512.441,10591.3 511.992,10591.4L511.992,10614.2C512.557,10614.3 513.257,10614.4 514.093,10614.4C514.929,10614.5 515.891,10614.5 516.978,10614.5C518.412,10614.5 519.664,10614.4 520.737,10614.3C521.805,10614.1 522.723,10613.8 523.481,10613.5C524.245,10613.2 524.878,10612.8 525.385,10612.3C525.829,10611.9 526.211,10611.4 526.52,10610.9C526.83,10610.4 527.066,10609.9 527.226,10609.3C527.39,10608.7 527.473,10608.1 527.473,10607.5C527.467,10606.6 527.298,10605.8 526.96,10605C526.622,10604.3 526.139,10603.6 525.511,10603.1C524.878,10602.6 524.124,10602.2 523.239,10601.9L523.24,10601.9ZM503.671,10605.9C503.671,10606.5 503.623,10607.2 503.522,10607.8C503.425,10608.4 503.275,10608.9 503.073,10609.3C502.875,10609.8 502.618,10610.2 502.314,10610.4C502.01,10610.7 501.652,10610.8 501.236,10610.8C500.802,10610.8 500.425,10610.7 500.111,10610.4C499.792,10610.2 499.531,10609.8 499.323,10609.4C499.115,10608.9 498.965,10608.4 498.864,10607.8C498.763,10607.2 498.714,10606.6 498.714,10605.9C498.714,10605.3 498.753,10604.7 498.84,10604.1C498.922,10603.5 499.062,10603 499.255,10602.5C499.453,10602 499.71,10601.6 500.033,10601.4C500.362,10601.1 500.758,10600.9 501.236,10600.9C501.671,10600.9 502.044,10601.1 502.353,10601.3C502.662,10601.6 502.913,10602 503.106,10602.5C503.3,10602.9 503.444,10603.4 503.536,10604C503.628,10604.6 503.671,10605.2 503.671,10605.9ZM501.352,10597.1C500.222,10597.1 499.188,10597.3 498.241,10597.7C497.289,10598.1 496.468,10598.6 495.767,10599.4C495.071,10600.2 494.525,10601.1 494.139,10602.2C493.757,10603.3 493.559,10604.5 493.555,10606C493.559,10607.3 493.743,10608.6 494.11,10609.6C494.477,10610.7 494.994,10611.6 495.67,10612.4C496.347,10613.1 497.149,10613.7 498.081,10614.1C499.009,10614.5 500.043,10614.6 501.179,10614.7C501.898,10614.7 502.618,10614.6 503.343,10614.4C504.068,10614.2 504.759,10613.8 505.411,10613.4C506.068,10613 506.652,10612.4 507.165,10611.7C507.677,10611 508.083,10610.2 508.378,10609.2C508.672,10608.2 508.827,10607.1 508.832,10605.8C508.832,10604.5 508.658,10603.3 508.32,10602.3C507.981,10601.2 507.489,10600.3 506.841,10599.5C506.199,10598.7 505.411,10598.1 504.488,10597.7C503.57,10597.3 502.522,10597.1 501.352,10597.1ZM490.974,10604C490.974,10602.5 490.776,10601.3 490.39,10600.2C490.003,10599.2 489.438,10598.4 488.699,10597.9C487.959,10597.3 487.055,10597.1 485.988,10597.1C485.359,10597.1 484.795,10597.2 484.287,10597.3C483.784,10597.5 483.345,10597.7 482.963,10598C482.581,10598.3 482.258,10598.6 481.987,10598.9C481.721,10599.1 481.508,10599.4 481.349,10599.7L481.291,10599.7C480.967,10598.9 480.455,10598.2 479.76,10597.8C479.059,10597.3 478.209,10597.1 477.203,10597.1C476.624,10597.1 476.102,10597.2 475.629,10597.3C475.16,10597.5 474.74,10597.7 474.372,10597.9C474,10598.1 473.681,10598.4 473.406,10598.7C473.131,10599 472.899,10599.2 472.71,10599.5L472.623,10599.5L472.391,10597.4L468.043,10597.4C468.072,10598.2 468.101,10599.1 468.125,10600C468.145,10600.9 468.159,10601.8 468.159,10602.8L468.159,10614.3L473.174,10614.3L473.174,10604.2C473.179,10603.6 473.251,10603.2 473.392,10602.8C473.527,10602.5 473.706,10602.2 473.923,10602C474.136,10601.8 474.358,10601.6 474.595,10601.5C474.826,10601.4 475.039,10601.4 475.232,10601.4C475.701,10601.4 476.073,10601.5 476.339,10601.8C476.605,10602.1 476.793,10602.5 476.899,10602.9C477.01,10603.4 477.063,10603.9 477.059,10604.5L477.059,10614.3L482.074,10614.3L482.074,10604.1C482.079,10603.6 482.166,10603.1 482.335,10602.7C482.509,10602.2 482.746,10601.9 483.05,10601.7C483.354,10601.5 483.703,10601.4 484.103,10601.4C484.567,10601.4 484.93,10601.5 485.205,10601.8C485.476,10602.1 485.669,10602.5 485.79,10603C485.906,10603.6 485.964,10604.2 485.959,10604.9L485.959,10614.3L490.974,10614.3L490.974,10604Z" style="fill:rgb(179,13,23);"/>
    </g>
</svg>
