<?xml version="1.0" encoding="UTF-8" standalone="no"?>
<!DOCTYPE svg PUBLIC "-//W3C//DTD SVG 1.1//EN" "http://www.w3.org/Graphics/SVG/1.1/DTD/svg11.dtd">
<svg width="100%" height="100%" viewBox="0 0 84 53" version="1.1" xmlns="http://www.w3.org/2000/svg" xmlns:xlink="http://www.w3.org/1999/xlink" xml:space="preserve" xmlns:serif="http://www.serif.com/" style="fill-rule:evenodd;clip-rule:evenodd;stroke-linejoin:round;stroke-miterlimit:2;">
    <g transform="matrix(1,0,0,1,-475.819,-10374.1)">
        <path d="M559.181,10391.1L559.181,10388.8C559.086,10387.7 558.852,10386.6 558.474,10385.6C555.779,10378.1 546.309,10374.1 534.101,10374.1C526.672,10374.1 518.231,10375.6 509.678,10378.7C487.059,10386.9 472.237,10403.2 476.572,10415.2C480.907,10427.2 502.751,10430.3 525.37,10422.1C544.665,10415.1 558.291,10402.2 559.181,10391.1ZM521.026,10387.7L526.286,10387.7C527.661,10387.7 528.74,10387.8 529.541,10387.9C530.341,10388.1 530.99,10388.3 531.494,10388.6C532.131,10389 532.626,10389.5 532.982,10390.2C533.338,10390.8 533.514,10391.5 533.514,10392.3C533.514,10393.8 533.226,10395.1 532.647,10396.2L535.134,10391.9L539.154,10391.9L541.294,10407.8L537.215,10407.8C537.215,10407.8 536.405,10395.4 522.227,10405.3C522.227,10405.3 525.848,10402.4 529.95,10400.9L532.32,10396.8L532.319,10396.8C531.515,10398.1 530.365,10399 528.863,10399.7C528.363,10400 527.719,10400.1 526.937,10400.2C526.158,10400.4 525.361,10400.4 524.551,10400.4L522.414,10400.4L520.852,10407.8L512.954,10407.8L514.17,10399.6C514.17,10399.6 514.18,10399.6 514.199,10399.5C514.219,10399.4 514.247,10399.2 514.286,10399C514.323,10398.8 514.378,10398.5 514.443,10398.1C514.513,10397.7 514.601,10397.2 514.72,10396.5C514.505,10396.9 514.336,10397.2 514.199,10397.5C514.064,10397.8 513.937,10398 513.82,10398.3C513.708,10398.5 513.607,10398.7 513.519,10398.9C513.429,10399.1 513.33,10399.3 513.216,10399.6L509.198,10407.8L505.723,10407.8L505.203,10399.8C505.185,10399.6 505.172,10399.4 505.161,10399C505.151,10398.7 505.143,10398.3 505.134,10397.9C505.121,10397.6 505.12,10397.2 505.12,10396.9L505.12,10396.1C505.02,10396.6 504.914,10397 504.802,10397.5C504.686,10397.9 504.578,10398.4 504.483,10398.8C504.444,10399 504.405,10399.1 504.364,10399.3C504.329,10399.5 504.289,10399.7 504.249,10399.8L502.079,10407.8L498.091,10407.8L503.154,10391.9L508.011,10391.9L508.441,10399.6C508.464,10399.8 508.471,10400.1 508.471,10400.4L508.471,10401.2C508.471,10401.5 508.467,10401.7 508.456,10402C508.448,10402.3 508.441,10402.5 508.441,10402.7C508.519,10402.5 508.616,10402.3 508.734,10402C508.85,10401.7 508.968,10401.4 509.094,10401.1C509.222,10400.8 509.345,10400.5 509.471,10400.2C509.596,10399.9 509.707,10399.7 509.803,10399.5L513.446,10391.9L518.394,10391.9L516.744,10407.8L521.026,10387.7ZM545.997,10397.1C546.199,10396.8 546.44,10396.4 546.704,10396L549.539,10391.9L554.432,10391.9L546.763,10401.3L545.402,10407.8L541.294,10407.8L542.681,10401.3L539.241,10391.9L543.781,10391.9L544.822,10396.2C544.844,10396.3 544.867,10396.4 544.895,10396.5C544.925,10396.6 544.958,10396.7 544.998,10396.9C545.04,10397 545.084,10397.2 545.146,10397.5C545.2,10397.7 545.28,10398 545.375,10398.4C545.586,10397.9 545.793,10397.5 545.997,10397.1ZM528.951,10402.8C530.338,10402.4 531.646,10402.4 532.623,10403L530.185,10407.8L525.965,10407.8L528.951,10402.8ZM546.458,10407.2C546.458,10406.9 546.73,10406.6 547.064,10406.6C547.397,10406.6 547.67,10406.9 547.67,10407.2C547.67,10407.6 547.397,10407.8 547.064,10407.8C546.73,10407.8 546.458,10407.6 546.458,10407.2ZM524.435,10391L523.135,10397.1L525.158,10397.1C525.95,10397.1 526.569,10397 527.025,10396.9C527.482,10396.7 527.842,10396.5 528.108,10396.1C528.419,10395.8 528.668,10395.3 528.863,10394.8C529.05,10394.2 529.151,10393.7 529.151,10393.1C529.151,10392.4 528.969,10391.9 528.599,10391.5C528.235,10391.2 527.677,10391 526.924,10391L524.435,10391ZM534.009,10400C534.961,10400 535.882,10400.1 536.734,10400.4L536.405,10395.4L534.009,10400ZM532.32,10396.8C532.438,10396.6 532.544,10396.4 532.647,10396.2L532.32,10396.8ZM546.819,10406.8L547.024,10406.8C547.072,10406.8 547.108,10406.8 547.137,10406.8C547.173,10406.8 547.204,10406.8 547.232,10406.9C547.259,10406.9 547.281,10406.9 547.294,10406.9C547.313,10407 547.323,10407 547.323,10407C547.323,10407.1 547.308,10407.1 547.279,10407.2C547.249,10407.2 547.208,10407.3 547.151,10407.3L547.397,10407.6C547.488,10407.5 547.551,10407.4 547.551,10407.2C547.551,10407 547.334,10406.7 547.064,10406.7C546.971,10406.7 546.892,10406.8 546.819,10406.8ZM546.579,10407.2C546.579,10407.4 546.676,10407.5 546.813,10407.6L546.813,10406.8C546.676,10406.9 546.579,10407 546.579,10407.2ZM546.918,10406.9L546.918,10407.2L547.014,10407.2C547.047,10407.2 547.072,10407.2 547.102,10407.2C547.125,10407.2 547.146,10407.2 547.162,10407.2C547.178,10407.2 547.191,10407.1 547.197,10407.1C547.208,10407.1 547.211,10407.1 547.211,10407C547.211,10407 547.208,10407 547.197,10407C547.189,10407 547.174,10406.9 547.16,10406.9C547.144,10406.9 547.125,10406.9 547.105,10406.9C547.086,10406.9 547.058,10406.9 547.031,10406.9L546.918,10406.9ZM546.918,10407.3L546.918,10407.6L546.819,10407.6C546.892,10407.7 546.971,10407.7 547.064,10407.7C547.155,10407.7 547.237,10407.7 547.308,10407.6L547.304,10407.6L547.043,10407.3L546.918,10407.3Z" style="fill:rgb(255,208,1);"/>
    </g>
    <g transform="matrix(1,0,0,1,-475.819,-10383)">
        <path d="M526.35,10396.6L521.026,10396.6L516.744,10416.7L520.852,10416.7L522.414,10409.3L524.551,10409.3C525.361,10409.3 526.16,10409.2 526.937,10409.1C527.719,10409 528.363,10408.8 528.863,10408.6C530.365,10407.9 531.515,10406.9 532.319,10405.7C532.321,10405.7 532.331,10405.7 532.336,10405.6L529.95,10409.8C525.848,10411.3 522.227,10414.2 522.227,10414.2C536.405,10404.2 537.215,10416.7 537.215,10416.7L541.294,10416.7L539.154,10400.8L535.134,10400.8L532.651,10405.1C533.227,10404 533.514,10402.7 533.514,10401.2C533.514,10400.4 533.338,10399.7 532.982,10399C532.626,10398.4 532.131,10397.9 531.494,10397.5C530.99,10397.2 530.341,10396.9 529.541,10396.8C528.753,10396.6 527.694,10396.6 526.35,10396.6ZM524.435,10399.8L526.924,10399.8C527.677,10399.8 528.235,10400 528.599,10400.4C528.969,10400.8 529.151,10401.3 529.151,10402C529.151,10402.5 529.05,10403.1 528.863,10403.6C528.668,10404.2 528.419,10404.6 528.108,10405C527.842,10405.3 527.482,10405.6 527.025,10405.7C526.569,10405.9 525.95,10406 525.158,10406L523.135,10406L524.435,10399.8ZM536.405,10404.2L536.734,10409.3C535.882,10409 534.961,10408.9 534.009,10408.9L536.405,10404.2ZM532.651,10405.1C532.554,10405.3 532.45,10405.5 532.336,10405.6L532.651,10405.1ZM549.539,10400.8L546.704,10404.9C546.44,10405.3 546.199,10405.7 545.997,10406C545.793,10406.4 545.586,10406.8 545.375,10407.3C545.28,10406.9 545.2,10406.6 545.146,10406.3C545.084,10406.1 545.04,10405.9 544.998,10405.7C544.958,10405.6 544.925,10405.5 544.895,10405.4C544.867,10405.3 544.844,10405.1 544.822,10405L543.781,10400.8L539.241,10400.8L542.681,10410.1L541.294,10416.7L545.402,10416.7L546.763,10410.1L554.432,10400.8L549.539,10400.8ZM513.446,10400.8L509.803,10408.4C509.707,10408.5 509.596,10408.8 509.471,10409.1C509.345,10409.3 509.222,10409.6 509.094,10409.9C508.968,10410.3 508.85,10410.6 508.734,10410.8C508.616,10411.1 508.519,10411.4 508.441,10411.6C508.441,10411.4 508.448,10411.2 508.456,10410.9C508.467,10410.6 508.471,10410.3 508.471,10410.1L508.471,10409.2C508.471,10408.9 508.464,10408.7 508.441,10408.5L508.011,10400.8L503.154,10400.8L498.091,10416.7L502.079,10416.7L504.249,10408.7C504.289,10408.5 504.329,10408.4 504.364,10408.2C504.405,10408 504.444,10407.8 504.483,10407.7C504.578,10407.2 504.686,10406.8 504.802,10406.3C504.914,10405.9 505.02,10405.4 505.12,10405L505.12,10405.8C505.12,10406.1 505.121,10406.4 505.134,10406.8C505.143,10407.2 505.151,10407.5 505.161,10407.9C505.172,10408.2 505.185,10408.5 505.203,10408.7L505.723,10416.7L509.198,10416.7L513.216,10408.4C513.33,10408.2 513.429,10408 513.519,10407.8C513.607,10407.6 513.708,10407.4 513.82,10407.1C513.937,10406.9 514.064,10406.6 514.199,10406.4C514.336,10406.1 514.505,10405.8 514.72,10405.4C514.601,10406 514.513,10406.6 514.443,10407C514.378,10407.4 514.323,10407.7 514.286,10407.9C514.247,10408.1 514.219,10408.2 514.199,10408.3C514.18,10408.4 514.17,10408.5 514.17,10408.5L512.954,10416.7L516.744,10416.7L518.394,10400.8L513.446,10400.8ZM528.951,10411.6L525.965,10416.7L530.185,10416.7L532.623,10411.9C532.059,10411.5 531.376,10411.4 530.639,10411.4C530.099,10411.4 529.532,10411.4 528.951,10411.6ZM546.458,10416.1C546.458,10416.4 546.73,10416.7 547.064,10416.7C547.397,10416.7 547.67,10416.4 547.67,10416.1C547.67,10415.8 547.397,10415.5 547.064,10415.5C546.73,10415.5 546.458,10415.8 546.458,10416.1ZM547.064,10415.6C547.334,10415.6 547.551,10415.8 547.551,10416.1C547.551,10416.2 547.488,10416.3 547.397,10416.4L547.151,10416.1C547.208,10416.1 547.249,10416.1 547.279,10416C547.308,10416 547.323,10416 547.323,10415.9C547.323,10415.9 547.313,10415.8 547.294,10415.8C547.281,10415.8 547.259,10415.7 547.232,10415.7C547.204,10415.7 547.173,10415.7 547.137,10415.7C547.108,10415.7 547.072,10415.7 547.024,10415.7L546.819,10415.7C546.892,10415.6 546.971,10415.6 547.064,10415.6ZM546.579,10416.1C546.579,10415.9 546.676,10415.8 546.813,10415.7L546.813,10416.5C546.676,10416.4 546.579,10416.2 546.579,10416.1ZM546.918,10415.8L547.031,10415.8C547.058,10415.8 547.086,10415.8 547.105,10415.8C547.125,10415.8 547.144,10415.8 547.16,10415.8C547.174,10415.8 547.189,10415.8 547.197,10415.8C547.208,10415.9 547.211,10415.9 547.211,10415.9C547.211,10415.9 547.208,10416 547.197,10416C547.191,10416 547.178,10416 547.162,10416C547.146,10416 547.125,10416.1 547.102,10416.1C547.072,10416.1 547.047,10416.1 547.014,10416.1L546.918,10416.1L546.918,10415.8ZM546.819,10416.5L546.918,10416.5L546.918,10416.2L547.043,10416.2L547.304,10416.5L547.308,10416.5C547.237,10416.5 547.155,10416.6 547.064,10416.6C546.971,10416.6 546.892,10416.5 546.819,10416.5" style="fill:rgb(62,72,153);"/>
    </g>
    <g transform="matrix(1,0,0,1,-475.819,-10363.3)">
        <path d="M495.958,10374.2C481.331,10383.1 473.083,10395.4 476.647,10404.8C481.181,10416.7 503.076,10419.4 525.554,10410.8C530.681,10408.9 535.395,10406.5 539.566,10403.9C535.603,10406.3 531.17,10408.5 526.379,10410.3C503.9,10418.9 482.007,10416.2 477.472,10404.2C473.976,10395.1 481.847,10383.1 495.958,10374.2" style="fill:rgb(255,210,0);fill-rule:nonzero;"/>
    </g>
</svg>
