<?xml version="1.0" encoding="UTF-8" standalone="no"?>
<!DOCTYPE svg PUBLIC "-//W3C//DTD SVG 1.1//EN" "http://www.w3.org/Graphics/SVG/1.1/DTD/svg11.dtd">
<svg width="100%" height="100%" viewBox="0 0 108 46" version="1.1" xmlns="http://www.w3.org/2000/svg" xmlns:xlink="http://www.w3.org/1999/xlink" xml:space="preserve" xmlns:serif="http://www.serif.com/" style="fill-rule:evenodd;clip-rule:evenodd;stroke-linejoin:round;stroke-miterlimit:2;">
    <g transform="matrix(1,0,0,1,-466.356,-10917.2)">
        <path d="M466.884,10946.2C467.066,10947.2 466.724,10950.3 466.662,10951.6C466.587,10953 466.247,10955.6 466.39,10957L470.114,10957C470.168,10960.9 469.331,10962.7 472.958,10962.7C476.574,10962.7 475.754,10961.1 475.832,10957L494.781,10957C494.798,10961.1 494.072,10962.7 497.573,10962.7C501.155,10962.7 500.438,10961.4 500.459,10957L504.221,10957C504.359,10955.1 503.941,10951.3 503.8,10949.2C503.682,10947.4 503.2,10942.9 503.4,10941.4C503.13,10941 502.725,10932.2 502.67,10931C502.591,10929.2 502.492,10927.4 502.364,10925.6C501.883,10919 490.066,10916.7 482.804,10917.3C479.647,10917.5 476.347,10918.2 473.807,10919.4C471.526,10920.5 468.612,10922.4 468.277,10925.1C467.819,10928.8 467.588,10936.5 467.324,10940.9L467.056,10945.5C467.006,10946 467.079,10945.9 466.884,10946.2ZM470.632,10939.5L499.946,10939.5C499.99,10938.5 498.732,10927.4 498.471,10926.6C498.176,10925.6 497.52,10925.2 496.269,10925.2C495.048,10925.2 493.82,10925.2 492.598,10925.2L478.064,10925.2C475.981,10925.2 472.765,10924.7 472.136,10926.5C471.915,10927.1 470.595,10938.6 470.632,10939.5ZM493.768,10922.4C493.856,10921.5 493.642,10921.1 492.738,10921C492.028,10920.9 491.106,10921 490.372,10921L480.944,10921C479.874,10921 477.137,10920.5 476.815,10921.6C476.327,10923.3 478.959,10922.9 480.159,10922.9L491.944,10922.9C493.141,10922.9 493.026,10923 493.768,10922.4ZM496.944,10945.8C493.116,10946.9 494.873,10952.2 498.414,10951.2C501.927,10950.2 500.463,10944.7 496.944,10945.8ZM472.239,10945.8C468.429,10947 470.301,10952.2 473.786,10951.2C477.239,10950.2 475.828,10944.7 472.239,10945.8" style="fill:rgb(62,142,179);"/>
    </g>
    <g transform="matrix(1,0,0,1,-466.356,-10931.2)">
        <path d="M476.432,10944.2C476.456,10944.3 476.367,10945 476.367,10945.3C476.367,10945.9 476.326,10948.6 476.391,10948.9C476.968,10948.9 477.765,10948.9 478.368,10948.9C478.962,10948.9 478.819,10949.1 478.821,10947.4C478.822,10946.7 478.823,10946 478.823,10945.4C478.823,10944.7 478.854,10944.1 479.583,10944.1C480.281,10944.1 480.376,10944.6 480.378,10945.3L480.38,10948.3C480.38,10948.9 480.243,10948.9 480.797,10948.9C481.401,10948.9 482.24,10948.9 482.811,10948.9C482.898,10948.5 482.835,10946.6 482.836,10946.1C482.836,10945.3 482.651,10944.1 483.62,10944.1C484.583,10944.1 484.401,10945.2 484.401,10946.1C484.401,10946.6 484.336,10948.5 484.426,10948.9L486.828,10948.9C486.875,10948.4 486.841,10947.7 486.842,10947.2C486.842,10945.7 487.015,10944 486.179,10942.9C485.762,10942.4 485.086,10941.9 484.115,10941.7C482.891,10941.5 482.354,10941.9 481.542,10942.3C481.367,10942.3 481.087,10942.1 480.859,10941.9C479.566,10941.3 477.892,10941.8 477.123,10942.8C476.563,10943.5 476.678,10943.6 476.481,10944.1C476.434,10944.2 476.473,10944.1 476.432,10944.2ZM487.895,10947.5C488.132,10948.1 488.679,10948.6 489.398,10948.8C490.438,10949 490.909,10948.7 491.689,10948.5C491.558,10949.1 491.133,10949.5 490.576,10949.7C489.85,10950 489.148,10949.7 488.523,10949.6C488.445,10949.9 488.496,10951.3 488.502,10951.8C489.681,10952 490.941,10952.1 492.028,10951.6C492.896,10951.3 493.676,10950.5 494.009,10949.6C494.313,10948.3 494.233,10947.1 494.234,10945.8C494.235,10944.5 494.271,10943.1 494.233,10941.8L491.738,10941.8C491.687,10942.7 491.733,10943.7 491.733,10944.5C491.734,10945.4 491.892,10946.4 490.909,10946.4C489.951,10946.3 490.116,10945.3 490.118,10944.5C490.12,10943.6 490.149,10942.7 490.116,10941.8L487.623,10941.8C487.573,10942.8 487.617,10943.9 487.618,10944.8C487.618,10945.9 487.547,10946.6 487.895,10947.5" style="fill:rgb(62,142,179);"/>
    </g>
    <g transform="matrix(1,0,0,1,-466.356,-10930.7)">
        <path d="M561.508,10944.4C562.567,10947.9 564.834,10949.7 564.123,10951.4C563.829,10952.1 562.989,10952.7 561.973,10952.8C560.619,10952.9 559.921,10952.1 559.37,10952L559.389,10960.7C561.682,10962 564.522,10962.2 567.19,10961.1C569.11,10960.4 570.704,10958.9 571.805,10957.3C571.93,10957.1 572.132,10956.7 572.257,10956.5C572.56,10955.8 572.876,10955.2 573.126,10954.3C574.736,10948 570.225,10944.5 570.185,10942.1C570.168,10941.1 570.688,10940.4 571.251,10940C572.005,10939.5 572.836,10939.7 573.821,10939.5C573.953,10939.1 573.918,10932 573.862,10931.1C573.802,10931 573.857,10931 573.471,10930.9C572.559,10930.7 570.938,10930.6 570.051,10930.7C563.128,10930.9 559.718,10938.4 561.508,10944.4ZM513.457,10960.9L513.458,10960.9L521.768,10960.9L521.799,10939.2C523.067,10939.1 524.935,10939.1 525.259,10940.2C525.818,10942.2 523.47,10942.2 522.872,10942.3C522.773,10943.7 522.87,10947.5 522.864,10949.3C522.863,10949.5 522.852,10949.7 522.859,10949.9C522.863,10950 522.865,10950 522.881,10950.1C523.055,10950.9 526.66,10949.3 526.554,10951.9C526.467,10954 523.882,10952.9 522.854,10953.3L522.861,10960.9C523.906,10961.1 526.999,10960.9 527.987,10960.6C529.447,10960.2 530.73,10959.3 531.453,10958.5C532.295,10957.6 532.993,10956.4 533.388,10954.9C533.681,10953.7 533.743,10952.3 533.622,10951.1C533.58,10950.7 533.432,10950.2 533.471,10949.8C533.458,10949.8 533.443,10949.8 533.436,10949.8L533.275,10949.4C533.236,10949.2 533.192,10949.1 533.146,10949C533.045,10948.7 532.937,10948.4 532.802,10948.2C532.303,10947.2 531.655,10946.4 530.799,10945.7C530.583,10945.6 530.37,10945.4 530.116,10945.3C529.925,10945.2 529.611,10945 529.47,10944.8C530.047,10944.2 530.417,10944 530.927,10943.3C531.878,10942 532.402,10940.7 532.45,10939C532.464,10938.5 532.45,10938 532.399,10937.6C532.359,10937.2 532.213,10936.7 532.25,10936.3C532.003,10936 532.007,10935.3 531.27,10934.2C530.871,10933.6 530.388,10933.1 529.809,10932.7C528.694,10931.9 527.091,10931.4 525.368,10931.2C523.848,10931 515.298,10931 513.439,10931.1L513.457,10960.9ZM535.985,10950.5C535.856,10957.6 539.788,10962.2 546.45,10961.8C547.954,10961.7 549.54,10961.4 550.822,10960.7C551.256,10960.5 551.577,10960.2 551.977,10960L552.543,10959.5C552.734,10959.4 552.92,10959.1 553.079,10959C553.464,10958.6 553.694,10958.3 554.039,10957.9C554.601,10957.1 555.119,10956.2 555.468,10955.2C556.334,10952.8 556.237,10950.5 556.239,10947.7C556.24,10945 556.242,10942.2 556.245,10939.4C556.248,10936.8 556.381,10933.8 556.239,10931.2C556.099,10931.1 556.375,10931.2 555.945,10931.1L549.688,10931.1C549.323,10931.1 548.015,10930.9 547.874,10931.2C547.774,10933 547.87,10935.1 547.87,10937C547.87,10938.9 547.872,10940.9 547.874,10942.9C547.876,10944.8 547.875,10946.7 547.878,10948.7C547.881,10950.4 548.104,10952.8 546.102,10952.8C544.142,10952.8 544.345,10950.5 544.346,10948.7C544.348,10946.8 544.348,10944.8 544.349,10942.9C544.353,10939 544.453,10935 544.349,10931.1L536.188,10931.1C535.891,10931.2 536.064,10931.1 535.981,10931.2L535.985,10950.5Z" style="fill:rgb(62,142,179);"/>
    </g>
    <g transform="matrix(1,0,0,1,-466.356,-10883)">
        <path d="M513.439,10922.6C513.439,10925.9 516.047,10928.5 519.279,10928.5C522.511,10928.5 525.134,10925.9 525.134,10922.6C525.134,10919.4 522.511,10916.7 519.279,10916.7C516.047,10916.7 513.439,10919.4 513.439,10922.6ZM522.074,10922.6C522.074,10924.1 520.824,10925.4 519.279,10925.4C517.749,10925.4 516.5,10924.1 516.5,10922.6C516.5,10921 517.749,10919.8 519.279,10919.8C520.824,10919.8 522.074,10921 522.074,10922.6ZM537.141,10928.5L537.141,10916.7L534.065,10916.7L534.065,10922.3L528.522,10916.7L527.273,10916.7L527.273,10928.5L530.349,10928.5L530.349,10922.9L535.876,10928.5L537.141,10928.5ZM539.499,10928.5L546.79,10928.5L546.79,10925.4L542.575,10925.4L542.575,10916.7L539.499,10916.7L539.499,10928.5ZM548.976,10928.4L552.052,10928.4L552.052,10916.7L548.976,10916.7L548.976,10928.4ZM564.278,10928.5L564.278,10916.7L561.202,10916.7L561.202,10922.3L555.659,10916.7L554.41,10916.7L554.41,10928.5L557.486,10928.5L557.486,10922.9L563.013,10928.5L564.278,10928.5ZM566.636,10928.4L573.912,10928.4L573.912,10925.9L569.712,10925.9L569.712,10923.8L573.428,10923.8L573.428,10921.2L569.712,10921.2L569.712,10919.3L573.912,10919.3L573.912,10916.7L566.636,10916.7L566.636,10928.4Z" style="fill:rgb(62,142,179);fill-rule:nonzero;"/>
    </g>
</svg>
