<?xml version="1.0" encoding="UTF-8" standalone="no"?>
<!DOCTYPE svg PUBLIC "-//W3C//DTD SVG 1.1//EN" "http://www.w3.org/Graphics/SVG/1.1/DTD/svg11.dtd">
<svg width="100%" height="100%" viewBox="0 0 143 33" version="1.1" xmlns="http://www.w3.org/2000/svg" xmlns:xlink="http://www.w3.org/1999/xlink" xml:space="preserve" xmlns:serif="http://www.serif.com/" style="fill-rule:evenodd;clip-rule:evenodd;stroke-linejoin:round;stroke-miterlimit:2;">
    <g transform="matrix(1,0,0,1,-446.309,-10767.2)">
        <path d="M555.207,10776.9C554.154,10776.3 552.751,10776.1 551.321,10776C550.728,10776 550.107,10776 549.541,10776C549.082,10776.1 548.65,10776.1 548.219,10776.1C547.949,10776.2 547.706,10776.2 547.49,10776.2C546.654,10776.3 546.006,10776.5 545.736,10776.5C545.197,10776.7 544.657,10776.8 544.144,10777C544.117,10777 544.09,10777 544.09,10777C544.063,10777 544.063,10777.1 544.036,10777.1C544.009,10777.1 544.009,10777.1 543.982,10777.1C543.766,10777.2 543.632,10777.4 543.632,10777.7C543.632,10777.8 543.632,10777.8 543.658,10777.9C543.658,10777.9 543.685,10778 543.685,10778L543.686,10778L543.686,10778C544.009,10778.8 544.117,10779.2 544.441,10779.9L544.441,10779.9C544.549,10780.2 544.792,10780.3 545.089,10780.3C545.143,10780.3 545.197,10780.3 545.25,10780.3C545.278,10780.3 545.278,10780.3 545.305,10780.3C545.466,10780.2 545.628,10780.2 545.79,10780.1C545.817,10780.1 545.844,10780.1 545.871,10780.1C545.952,10780.1 546.006,10780 546.087,10780C546.815,10779.8 547.625,10779.7 548.407,10779.6C548.515,10779.6 548.623,10779.6 548.704,10779.6C549.109,10779.6 549.486,10779.5 549.837,10779.5L550.485,10779.5C550.89,10779.5 551.186,10779.6 551.375,10779.6C552.563,10780 553.156,10781.2 553.102,10782.5C552.455,10782.4 551.699,10782.2 551.051,10782.2C549.271,10782 547.463,10782 545.79,10782.7C543.982,10783.5 543.038,10784.9 543.038,10786.9C543.038,10788.8 543.793,10790.4 545.682,10791.2C546.6,10791.6 547.571,10791.7 548.569,10791.6C550.539,10791.5 552.239,10790.8 553.318,10788.8C553.372,10789.2 553.399,10789.4 553.453,10789.7C553.615,10790.6 554.1,10791.2 555.045,10791.4C555.611,10791.6 556.178,10791.6 556.718,10791.6L556.772,10791.6C557.149,10791.6 557.419,10791.3 557.419,10790.9L557.419,10790.6C557.419,10790.6 557.419,10781.9 557.392,10781.5C557.419,10779.4 556.664,10777.8 555.207,10776.9M553.156,10785.5C553.129,10786.1 552.805,10786.9 552.347,10787.3C551.807,10787.7 550.62,10788.2 549.541,10788.2C548.434,10788.2 547.409,10787.8 547.301,10786.7C547.247,10786.1 547.544,10785.5 548.084,10785.3C549.433,10784.6 551.483,10784.9 552.886,10785C553.237,10785.1 553.183,10785.1 553.156,10785.5" style="fill:rgb(151,193,34);fill-rule:nonzero;"/>
    </g>
    <g transform="matrix(1,0,0,1,-446.309,-10767.2)">
        <path d="M542.309,10778.2C542.309,10778.2 542.336,10778.1 542.309,10778.2C542.336,10778.1 542.363,10778 542.363,10777.9C542.363,10777.7 542.283,10777.5 542.121,10777.3C542.094,10777.3 542.094,10777.3 542.067,10777.3L542.04,10777.3C542.013,10777.2 541.986,10777.2 541.932,10777.2C541.635,10777 541.365,10776.9 541.095,10776.8C540.205,10776.4 539.287,10776.2 538.343,10776.1C537.642,10776 536.94,10776 536.239,10776C536.077,10776 535.942,10776 535.78,10776C535.645,10776 535.51,10776 535.375,10776C533.217,10776.3 531.463,10777.3 530.276,10779.1C529.331,10780.7 528.9,10782.2 528.926,10783.8C528.926,10785.5 529.331,10787 530.276,10788.5C531.463,10790.4 533.217,10791.4 535.375,10791.6C535.51,10791.7 535.645,10791.7 535.78,10791.7C535.942,10791.7 536.077,10791.7 536.239,10791.7C536.94,10791.7 537.642,10791.7 538.343,10791.6C539.26,10791.4 540.178,10791.2 541.095,10790.9C541.392,10790.8 541.662,10790.6 541.932,10790.5C541.959,10790.4 542.013,10790.4 542.04,10790.4C542.067,10790.4 542.067,10790.4 542.067,10790.4C542.094,10790.4 542.121,10790.4 542.121,10790.3C542.283,10790.2 542.391,10790 542.363,10789.8C542.363,10789.7 542.336,10789.6 542.309,10789.5C542.309,10789.5 542.283,10789.4 542.283,10789.4L542.256,10789.4C542.256,10789.3 542.229,10789.3 542.229,10789.3C541.797,10788.7 541.365,10788.1 540.933,10787.5C540.933,10787.4 540.906,10787.4 540.906,10787.4C540.906,10787.4 540.879,10787.4 540.879,10787.3C540.745,10787.2 540.556,10787.1 540.34,10787.1C540.232,10787.1 540.151,10787.1 540.07,10787.2L540.043,10787.2C540.043,10787.2 540.016,10787.2 540.016,10787.2L539.989,10787.2C538.964,10787.7 537.911,10787.9 536.778,10788L536.616,10788C534.916,10788 533.702,10786.7 533.406,10784.9C533.352,10784.5 533.298,10784.2 533.298,10783.8C533.298,10783.4 533.352,10783 533.406,10782.6C533.702,10780.8 534.916,10779.6 536.616,10779.6L536.778,10779.6C537.885,10779.6 538.964,10779.9 539.989,10780.4L540.016,10780.4C540.016,10780.4 540.043,10780.4 540.043,10780.4L540.07,10780.4C540.151,10780.4 540.232,10780.5 540.34,10780.5C540.556,10780.5 540.744,10780.4 540.879,10780.2C540.879,10780.2 540.906,10780.2 540.906,10780.2C540.906,10780.1 540.933,10780.1 540.933,10780.1C541.365,10779.5 541.797,10778.9 542.229,10778.2C542.256,10778.2 542.256,10778.2 542.256,10778.2L542.283,10778.1C542.309,10778.2 542.309,10778.2 542.309,10778.2" style="fill:rgb(151,193,34);fill-rule:nonzero;"/>
    </g>
    <g transform="matrix(1,0,0,1,-446.309,-10771.8)">
        <path d="M588.61,10791.8L588.61,10787C588.61,10786.4 588.583,10785.8 588.502,10785.1C588.259,10782.8 587.207,10781.3 585.318,10780.9C584.509,10780.7 583.618,10780.6 582.755,10780.7C581.622,10780.8 580.569,10781.2 579.733,10781.9C579.436,10782.1 579.193,10782.4 578.951,10782.8C578.924,10782.8 578.843,10782.9 578.735,10783L578.735,10777C578.735,10776.6 578.411,10776.3 578.006,10776.3L575.173,10776.3C574.768,10776.3 574.445,10776.6 574.445,10777L574.445,10795.3C574.445,10795.7 574.768,10796 575.173,10796L578.033,10796C578.438,10796 578.762,10795.7 578.762,10795.3L578.762,10788C578.762,10787 578.951,10786 579.76,10785.4C579.922,10785.3 580.111,10785.2 580.326,10785.1C581.001,10784.9 581.757,10784.8 582.485,10784.8C583.537,10784.9 584.05,10785.5 584.266,10786.6C584.347,10787 584.374,10787.5 584.374,10788L584.374,10795.4C584.401,10795.7 584.698,10796 585.102,10796L587.962,10796C588.34,10796 588.664,10795.7 588.691,10795.4L588.691,10795.3C588.61,10794.5 588.61,10795.4 588.61,10791.8Z" style="fill:rgb(151,193,34);fill-rule:nonzero;"/>
    </g>
    <g transform="matrix(1,0,0,1,-446.309,-10767.2)">
        <path d="M570.262,10782.9C569.291,10782.6 568.239,10782.5 567.24,10782.3C566.377,10782.1 565.514,10782.1 564.677,10781.8C564.03,10781.7 563.733,10781.3 563.76,10780.8C563.787,10780.2 564.138,10779.9 564.812,10779.8C565.352,10779.7 565.891,10779.7 566.404,10779.7C567.672,10779.7 568.886,10779.9 570.02,10780.5L570.046,10780.5C570.046,10780.5 570.074,10780.5 570.074,10780.5L570.101,10780.5C570.181,10780.5 570.289,10780.6 570.37,10780.6C570.586,10780.6 570.775,10780.5 570.91,10780.3C570.91,10780.3 570.937,10780.3 570.937,10780.3C570.937,10780.2 570.964,10780.2 570.964,10780.2C571.396,10779.6 571.827,10779 572.259,10778.4C572.286,10778.3 572.286,10778.3 572.313,10778.3C572.313,10778.3 572.34,10778.3 572.34,10778.2C572.367,10778.2 572.367,10778.2 572.394,10778.2C572.421,10778.1 572.448,10778 572.448,10777.9C572.448,10777.7 572.367,10777.5 572.205,10777.3L572.124,10777.3C572.097,10777.2 572.07,10777.2 572.016,10777.2C571.719,10777 571.449,10776.9 571.153,10776.8C569.102,10776 566.944,10775.9 564.758,10776C563.625,10776.1 562.546,10776.4 561.547,10777C560.01,10778 559.335,10779.4 559.497,10781.2C559.659,10782.9 560.441,10784.2 562.087,10784.8C563.139,10785.1 564.273,10785.3 565.352,10785.6C566.188,10785.8 567.079,10785.8 567.915,10786C568.617,10786.2 568.859,10786.7 568.725,10787.4C568.59,10788 568.05,10788.2 567.51,10788.3C565.325,10788.5 563.274,10788.2 561.412,10787L561.358,10787C561.332,10787 561.332,10787 561.305,10787C561.197,10786.9 561.116,10786.9 560.981,10786.9C560.792,10786.9 560.63,10787 560.522,10787.1C560.495,10787.1 560.495,10787.1 560.468,10787.1L560.441,10787.1C559.928,10787.7 559.416,10788.2 558.903,10788.7C558.903,10788.7 558.903,10788.8 558.876,10788.8C558.849,10788.8 558.849,10788.8 558.822,10788.8C558.741,10788.9 558.687,10789.1 558.687,10789.3C558.687,10789.5 558.768,10789.7 558.93,10789.8L558.957,10789.8C558.984,10789.9 558.984,10789.9 559.011,10789.9C559.092,10789.9 559.092,10789.9 559.119,10789.9C559.416,10790.1 559.686,10790.3 560.01,10790.4C562.492,10791.7 565.136,10791.9 567.861,10791.6C568.94,10791.5 569.966,10791.3 570.91,10790.7C572.529,10789.7 573.123,10788.2 573.015,10786.4C572.907,10784.6 571.962,10783.5 570.262,10782.9" style="fill:rgb(151,193,34);fill-rule:nonzero;"/>
    </g>
    <g transform="matrix(1,0,0,1,-446.309,-10767.1)">
        <path d="M529.331,10776.9C529.331,10776.9 529.331,10776.9 529.358,10776.9C529.358,10776.8 529.385,10776.8 529.385,10776.7C529.385,10776.5 529.196,10776.3 528.953,10776.3L525.932,10776.3C525.689,10776.3 525.5,10776.4 525.392,10776.6L524.529,10779C524.016,10780.4 523.476,10781.9 522.963,10783.3L522.154,10785.6L522.154,10785.6C520.886,10782.6 519.672,10779.7 518.457,10776.8C518.457,10776.8 518.431,10776.8 518.431,10776.8C518.296,10776.5 517.999,10776.3 517.675,10776.3L510.444,10776.3C510.039,10776.3 509.797,10776.4 509.554,10776.7C509.203,10777.2 508.852,10777.6 508.528,10778C507.557,10779.2 506.559,10780.5 505.587,10781.6C505.533,10781.7 505.507,10781.8 505.453,10781.8C505.318,10782 505.156,10782.2 504.913,10782.5L504.913,10780L504.913,10772.3C504.913,10771.9 504.589,10771.6 504.185,10771.6L501.351,10771.6C500.946,10771.6 500.623,10771.9 500.623,10772.3L500.623,10790.6C500.623,10791 500.946,10791.3 501.351,10791.3L504.211,10791.3C504.616,10791.3 504.94,10791 504.94,10790.6L504.94,10788C504.94,10787.9 504.94,10787.6 505.048,10787.5C505.533,10786.9 506.046,10786.3 506.586,10785.7L507.071,10785.1L509.419,10790.7C509.446,10790.7 509.473,10790.8 509.5,10790.9C509.662,10791.1 509.931,10791.3 510.255,10791.3L513.763,10791.3C514.006,10791.3 514.221,10791.1 514.221,10790.8L514.221,10790.8C514.221,10790.7 514.221,10790.7 514.195,10790.6C514.195,10790.6 514.168,10790.6 514.168,10790.6C514.168,10790.6 514.168,10790.6 514.141,10790.6L510.255,10782L510.255,10782C510.228,10781.9 510.201,10781.8 510.201,10781.7C510.201,10781.5 510.255,10781.4 510.363,10781.2L510.39,10781.2L510.417,10781.2L510.525,10781.1C511.362,10780 512.225,10779 513.088,10777.9C513.088,10777.9 513.115,10777.9 513.115,10777.9C513.25,10777.7 513.439,10777.7 513.628,10777.7C513.898,10777.7 514.141,10777.8 514.249,10778C514.249,10778.1 514.276,10778.1 514.276,10778.1C514.437,10778.4 514.599,10778.8 514.761,10779.1C516.488,10783 518.215,10786.9 519.969,10790.8C520.157,10791.2 520.157,10791.6 519.861,10791.9C519.618,10792.2 519.132,10792.2 518.782,10792.2L516.245,10792.2C515.895,10792.3 515.598,10792.5 515.49,10792.8L514.572,10795.4C514.545,10795.5 514.545,10795.5 514.545,10795.6L514.545,10795.6C514.572,10795.8 514.761,10796 515.031,10796L518.862,10796C521.156,10795.9 522.451,10794.8 523.476,10792.3C523.503,10792.3 523.53,10792.2 523.557,10792.1C525.257,10787.8 526.93,10783.4 528.603,10779C528.873,10778.3 529.116,10777.7 529.358,10777C529.331,10777 529.331,10776.9 529.331,10776.9ZM496.36,10782.8C495.388,10782.5 494.336,10782.3 493.338,10782.1C492.474,10781.9 491.611,10781.9 490.775,10781.6C490.127,10781.5 489.83,10781.1 489.857,10780.6C489.884,10780.1 490.235,10779.7 490.909,10779.6C491.449,10779.5 491.989,10779.5 492.501,10779.5C493.77,10779.5 494.984,10779.7 496.117,10780.3L496.144,10780.3C496.144,10780.3 496.171,10780.3 496.171,10780.3L496.198,10780.3C496.279,10780.4 496.387,10780.4 496.468,10780.4C496.683,10780.4 496.872,10780.3 497.007,10780.1C497.007,10780.1 497.034,10780.1 497.034,10780.1C497.034,10780.1 497.061,10780.1 497.061,10780C497.493,10779.4 497.925,10778.8 498.357,10778.2C498.383,10778.1 498.383,10778.1 498.41,10778.1C498.41,10778.1 498.437,10778.1 498.437,10778.1C498.464,10778 498.464,10778 498.491,10778C498.518,10777.9 498.545,10777.8 498.545,10777.7C498.545,10777.5 498.464,10777.3 498.302,10777.1C498.275,10777.1 498.275,10777.1 498.248,10777.1L498.222,10777.1C498.194,10777 498.167,10777 498.114,10777C497.817,10776.8 497.547,10776.7 497.25,10776.6C495.173,10775.8 493.014,10775.7 490.856,10775.8C489.722,10775.9 488.616,10776.2 487.645,10776.8C486.107,10777.8 485.432,10779.2 485.594,10781.1C485.756,10782.8 486.539,10784.1 488.184,10784.6C489.237,10784.9 490.37,10785.1 491.476,10785.4C492.313,10785.6 493.203,10785.6 494.039,10785.9C494.741,10786 494.984,10786.5 494.849,10787.2C494.714,10787.9 494.174,10788 493.635,10788.1C491.449,10788.3 489.398,10788 487.537,10786.8L487.483,10786.8C487.456,10786.8 487.456,10786.8 487.429,10786.8C487.321,10786.7 487.24,10786.7 487.105,10786.7C486.916,10786.7 486.754,10786.8 486.646,10786.9C486.619,10786.9 486.619,10786.9 486.619,10786.9L486.592,10786.9C486.08,10787.5 485.567,10788 485.027,10788.6C485.027,10788.6 485.027,10788.6 485.001,10788.6C484.974,10788.6 484.974,10788.6 484.947,10788.6C484.866,10788.8 484.812,10788.9 484.812,10789.1C484.812,10789.3 484.92,10789.5 485.054,10789.6L485.082,10789.6C485.109,10789.7 485.109,10789.7 485.135,10789.7C485.162,10789.7 485.162,10789.7 485.189,10789.7C485.486,10789.9 485.756,10790.1 486.08,10790.3C488.562,10791.5 491.233,10791.7 493.931,10791.5C495.011,10791.4 496.036,10791.1 496.98,10790.6C498.626,10789.6 499.193,10788.1 499.085,10786.3C499.004,10784.5 498.06,10783.3 496.36,10782.8" style="fill:rgb(53,141,204);fill-rule:nonzero;"/>
    </g>
    <g transform="matrix(1,0,0,1,-446.309,-10768.5)">
        <path d="M476.663,10782.7L473.048,10782.4L473.021,10782.4C470.889,10782.2 468.812,10781.2 467.193,10779.6C465.574,10778 464.656,10775.9 464.441,10773.8L464.441,10773.7L464.063,10770.2C464.009,10769.2 463.226,10768.5 462.309,10768.5C461.365,10768.5 460.609,10769.2 460.528,10770.2L460.178,10773.8L460.178,10773.9C459.961,10776 459.044,10778 457.425,10779.7C455.806,10781.3 453.729,10782.2 451.597,10782.4L451.516,10782.4L447.955,10782.7C447.037,10782.8 446.309,10783.6 446.309,10784.5C446.309,10785.5 447.037,10786.2 447.955,10786.3L451.543,10786.6L451.597,10786.6C453.729,10786.9 455.806,10787.7 457.425,10789.4C459.044,10791 459.961,10793.1 460.178,10795.2L460.178,10795.3L460.528,10798.9C460.609,10799.8 461.365,10800.5 462.309,10800.5C463.253,10800.5 464.009,10799.8 464.09,10798.9L464.441,10795.2L464.441,10795.2C464.656,10793.1 465.547,10791 467.193,10789.4C468.812,10787.8 470.889,10786.9 473.021,10786.6L473.128,10786.6L476.69,10786.3C477.608,10786.2 478.336,10785.5 478.336,10784.5C478.282,10783.6 477.58,10782.8 476.663,10782.7" style="fill:rgb(151,193,34);fill-rule:nonzero;"/>
    </g>
</svg>
