<?xml version="1.0" encoding="UTF-8" standalone="no"?>
<!DOCTYPE svg PUBLIC "-//W3C//DTD SVG 1.1//EN" "http://www.w3.org/Graphics/SVG/1.1/DTD/svg11.dtd">
<svg width="100%" height="100%" viewBox="0 0 153 40" version="1.1" xmlns="http://www.w3.org/2000/svg" xmlns:xlink="http://www.w3.org/1999/xlink" xml:space="preserve" xmlns:serif="http://www.serif.com/" style="fill-rule:evenodd;clip-rule:evenodd;stroke-linejoin:round;stroke-miterlimit:2;">
    <g transform="matrix(1,0,0,1,-441.64,-10670.7)">
        <path d="M444.458,10674.7L456.852,10670.8C457.904,10670.5 458.993,10670.6 459.901,10671.1C460.808,10671.6 461.534,10672.4 461.86,10673.5L462.911,10676.9L465.627,10676.9C466.729,10676.9 467.73,10677.3 468.455,10678C469.18,10678.8 469.63,10679.8 469.63,10680.9L469.63,10706.7C469.63,10707.8 469.18,10708.8 468.455,10709.5C467.73,10710.2 466.729,10710.7 465.627,10710.7L452.652,10710.7C451.55,10710.7 450.549,10710.2 449.824,10709.5C449.099,10708.8 448.649,10707.8 448.649,10706.7L448.649,10701.7L441.819,10679.7C441.493,10678.6 441.626,10677.5 442.104,10676.6C442.582,10675.7 443.405,10675 444.458,10674.7ZM453.169,10684.8L455.491,10684.8L455.491,10687.1L453.169,10687.1L453.169,10684.8ZM462.788,10684.8L465.11,10684.8L465.11,10687.1L462.788,10687.1L462.788,10684.8ZM457.978,10684.8L460.301,10684.8L460.301,10687.1L457.978,10687.1L457.978,10684.8ZM460.583,10676.9L459.736,10674.1C459.592,10673.7 459.268,10673.3 458.864,10673.1C458.46,10672.9 457.976,10672.8 457.51,10673L445.116,10676.8C444.65,10676.9 444.285,10677.3 444.072,10677.7C443.859,10678.1 443.799,10678.6 443.943,10679L448.649,10694.2L448.649,10680.9C448.649,10679.8 449.099,10678.8 449.824,10678C450.549,10677.3 451.55,10676.9 452.652,10676.9L460.583,10676.9ZM465.627,10679.1L452.652,10679.1C452.164,10679.1 451.719,10679.3 451.396,10679.6C451.073,10679.9 450.873,10680.4 450.873,10680.9L450.873,10706.7C450.873,10707.1 451.073,10707.6 451.396,10707.9C451.719,10708.2 452.164,10708.4 452.652,10708.4L465.627,10708.4C466.115,10708.4 466.56,10708.2 466.883,10707.9C467.206,10707.6 467.406,10707.1 467.406,10706.7L467.406,10680.9C467.406,10680.4 467.206,10679.9 466.883,10679.6C466.56,10679.3 466.115,10679.1 465.627,10679.1" style="fill:rgb(247,148,30);fill-rule:nonzero;"/>
    </g>
    <g transform="matrix(1,0,0,1,-441.64,-1289.49)">
        <text x="485.717px" y="1317.25px" style="font-family:'Manrope-Regular', 'Manrope';font-size:21.442px;fill:rgb(51,51,51);">z</text>
        <text x="496.765px" y="1317.25px" style="font-family:'Manrope-Bold', 'Manrope';font-weight:700;font-size:21.442px;fill:rgb(51,51,51);">b<tspan x="509.667px 515.376px 521.084px 533.687px 542.076px 554.356px " y="1317.25px 1317.25px 1317.25px 1317.25px 1317.25px 1317.25px ">iletem</tspan></text>
        <text x="573.327px" y="1317.25px" style="font-family:'Manrope-Regular', 'Manrope';font-size:21.442px;fill:rgb(51,51,51);">.<tspan x="578.456px 590.844px " y="1317.25px 1317.25px ">pl</tspan></text>
    </g>
</svg>
