<?xml version="1.0" encoding="UTF-8" standalone="no"?>
<!DOCTYPE svg PUBLIC "-//W3C//DTD SVG 1.1//EN" "http://www.w3.org/Graphics/SVG/1.1/DTD/svg11.dtd">
<svg width="100%" height="100%" viewBox="0 0 52 22" version="1.1" xmlns="http://www.w3.org/2000/svg" xmlns:xlink="http://www.w3.org/1999/xlink" xml:space="preserve" xmlns:serif="http://www.serif.com/" style="fill-rule:evenodd;clip-rule:evenodd;stroke-linejoin:round;stroke-miterlimit:2;">
    <g transform="matrix(1,0,0,1,-1493.58,-11934)">
        <path d="M1493.58,11938.6L1505.57,11950.8L1505.57,11938.6L1493.58,11938.6ZM1526.75,11937.5C1527.72,11937.5 1528.52,11936.8 1528.52,11935.8C1528.52,11934.8 1527.72,11934 1526.75,11934C1525.77,11934 1524.98,11934.8 1524.98,11935.8C1524.98,11936.8 1525.77,11937.5 1526.75,11937.5ZM1529.23,11948.7C1529.01,11948.6 1528.35,11948.3 1528.35,11945.7L1528.35,11940.2C1528.35,11939.3 1527.63,11938.6 1526.75,11938.6C1525.86,11938.6 1525.14,11939.3 1525.14,11940.2L1525.14,11945.7C1525.14,11947.7 1525.41,11950.4 1527.78,11951.6C1528.58,11952 1529.54,11951.7 1529.94,11950.9C1530.34,11950.1 1530.02,11949.1 1529.23,11948.7ZM1516.85,11948.6C1514.99,11948.6 1513.48,11947.1 1513.48,11945.2C1513.48,11943.3 1514.99,11941.8 1516.85,11941.8C1518.71,11941.8 1520.22,11943.3 1520.22,11945.2C1520.22,11947.1 1518.71,11948.6 1516.85,11948.6ZM1516.85,11938.6C1515.61,11938.6 1514.47,11939 1513.48,11939.6L1513.48,11935.6C1513.48,11934.7 1512.76,11934 1511.87,11934C1510.98,11934 1510.26,11934.7 1510.26,11935.6L1510.26,11945.2C1510.26,11945.2 1510.26,11945.2 1510.26,11945.2C1510.27,11948.8 1513.22,11951.8 1516.85,11951.8C1520.48,11951.8 1523.44,11948.8 1523.44,11945.2C1523.44,11941.6 1520.48,11938.6 1516.85,11938.6ZM1538.41,11948.6C1536.55,11948.6 1535.04,11947.1 1535.04,11945.2C1535.04,11943.3 1536.55,11941.8 1538.41,11941.8C1540.27,11941.8 1541.78,11943.3 1541.78,11945.2C1541.78,11947.1 1540.27,11948.6 1538.41,11948.6ZM1538.41,11938.6C1534.78,11938.6 1531.82,11941.6 1531.82,11945.2L1531.82,11954.4C1531.82,11955.3 1532.55,11956 1533.43,11956C1534.32,11956 1535.04,11955.3 1535.04,11954.4L1535.04,11950.8C1536.03,11951.4 1537.18,11951.8 1538.41,11951.8C1542.05,11951.8 1545,11948.8 1545,11945.2C1545,11941.6 1542.05,11938.6 1538.41,11938.6" style="fill:rgb(254,254,254);fill-rule:nonzero;"/>
    </g>
</svg>
