<?xml version="1.0" encoding="UTF-8" standalone="no"?>
<!DOCTYPE svg PUBLIC "-//W3C//DTD SVG 1.1//EN" "http://www.w3.org/Graphics/SVG/1.1/DTD/svg11.dtd">
<svg width="100%" height="100%" viewBox="0 0 77 66" version="1.1" xmlns="http://www.w3.org/2000/svg" xmlns:xlink="http://www.w3.org/1999/xlink" xml:space="preserve" xmlns:serif="http://www.serif.com/" style="fill-rule:evenodd;clip-rule:evenodd;stroke-linejoin:round;stroke-miterlimit:2;">
    <g transform="matrix(1,0,0,1,-374.999,-11912)">
        <path d="M374.999,11931.7L384.045,11931.7L384.045,11925.8L387.166,11931.7L390.286,11925.8L390.286,11931.7L399.332,11931.7L399.332,11912L390.445,11912L387.166,11919L383.886,11912L383.886,11912L383.886,11912L374.999,11912L374.999,11931.7ZM374.999,11955L384.045,11955L384.045,11950.6L390.803,11950.6C395.513,11950.6 399.332,11947.1 399.332,11942.8C399.332,11938.5 395.513,11935 390.803,11935L374.999,11935L374.999,11955ZM384.017,11945.8L387.095,11945.8C388.559,11945.8 389.756,11944.6 389.756,11943.2C389.756,11941.7 388.559,11940.5 387.095,11940.5L384.017,11940.5L384.017,11945.8ZM374.999,11958.2L384.045,11958.2L384.045,11969.5L392.725,11958.2L399.254,11958.2L393.736,11965.4L399.302,11970.3L450.94,11970.3L450.94,11978L393.089,11978L387.83,11973.1L384.045,11978L374.999,11978L374.999,11958.2ZM437.27,11970.6L436.413,11971.9L434.957,11971.9L435.431,11970.6L437.27,11970.6ZM400.843,11975.1L400.166,11975.1L400.166,11977.1L397.752,11977.1L397.752,11971.1L401.542,11971.1C402.473,11971.1 403.177,11971.3 403.653,11971.6C404.13,11972 404.368,11972.5 404.368,11973.1C404.368,11974 403.948,11974.6 403.108,11974.9L404.759,11977.1L402.081,11977.1L400.843,11975.1ZM400.166,11973.7L401.044,11973.7C401.355,11973.7 401.575,11973.7 401.706,11973.6C401.836,11973.5 401.901,11973.4 401.901,11973.2C401.901,11973 401.836,11972.9 401.706,11972.8C401.575,11972.7 401.355,11972.6 401.044,11972.6L400.166,11972.6L400.166,11973.7ZM411.269,11975.6L411.269,11977.1L404.95,11977.1L404.95,11975.7L408.496,11972.6L404.992,11972.6L404.992,11971.1L411.152,11971.1L411.152,11972.6L407.627,11975.6L411.269,11975.6ZM417.884,11975.6L417.884,11977.1L411.956,11977.1L411.956,11971.1L417.757,11971.1L417.757,11972.7L414.423,11972.7L414.423,11973.4L417.111,11973.4L417.111,11974.9L414.423,11974.9L414.423,11975.6L417.884,11975.6ZM421.62,11971C422.311,11971 422.9,11971.1 423.388,11971.3C423.875,11971.4 424.358,11971.6 424.837,11972L423.758,11973.3C423.441,11973.1 423.117,11972.9 422.79,11972.8C422.461,11972.6 422.096,11972.6 421.694,11972.6C421.447,11972.6 421.249,11972.6 421.101,11972.7C420.953,11972.8 420.879,11972.8 420.879,11972.9C420.879,11973 420.949,11973.1 421.091,11973.1C421.232,11973.1 421.479,11973.2 421.832,11973.2C422.855,11973.4 423.59,11973.6 424.038,11973.9C424.486,11974.3 424.71,11974.7 424.71,11975.3C424.71,11975.7 424.573,11976 424.298,11976.3C424.022,11976.6 423.649,11976.8 423.176,11977C422.703,11977.1 422.174,11977.2 421.588,11977.2C420.762,11977.2 420.103,11977.1 419.609,11977C419.115,11976.9 418.631,11976.7 418.159,11976.4L419.217,11974.9C419.514,11975.2 419.838,11975.4 420.191,11975.5C420.544,11975.6 420.949,11975.7 421.408,11975.7C421.923,11975.7 422.181,11975.6 422.181,11975.4C422.181,11975.3 422.1,11975.2 421.937,11975.2C421.775,11975.1 421.511,11975.1 421.144,11975C420.607,11974.9 420.15,11974.8 419.773,11974.7C419.395,11974.6 419.064,11974.4 418.778,11974.2C418.492,11973.9 418.35,11973.6 418.35,11973.1C418.35,11972.7 418.476,11972.3 418.73,11972C418.984,11971.7 419.357,11971.5 419.847,11971.3C420.337,11971.1 420.928,11971 421.62,11971ZM431.474,11975.6L431.474,11977.1L425.155,11977.1L425.155,11975.7L428.701,11972.6L425.197,11972.6L425.197,11971.1L431.357,11971.1L431.357,11972.6L427.833,11975.6L431.474,11975.6ZM437.102,11971.3C437.487,11971.4 437.821,11971.6 438.105,11971.9C438.729,11972.4 439.041,11973.2 439.041,11974.1C439.041,11975.1 438.729,11975.9 438.105,11976.4C437.48,11976.9 436.611,11977.2 435.496,11977.2C434.762,11977.2 434.128,11977.1 433.596,11976.8C433.063,11976.6 432.654,11976.3 432.368,11975.8C432.083,11975.3 431.94,11974.8 431.94,11974.1C431.94,11973.5 432.083,11972.9 432.368,11972.5C432.654,11972 433.063,11971.6 433.596,11971.4C434.007,11971.2 434.478,11971.1 435.009,11971.1L434.616,11972.1L436.54,11972.1L437.102,11971.3ZM435.496,11972.6C435.136,11972.6 434.873,11972.8 434.707,11973C434.541,11973.2 434.458,11973.6 434.458,11974.1C434.458,11974.6 434.541,11975 434.707,11975.3C434.873,11975.5 435.136,11975.6 435.496,11975.6C435.856,11975.6 436.117,11975.5 436.279,11975.3C436.441,11975 436.522,11974.6 436.522,11974.1C436.522,11973.6 436.441,11973.2 436.279,11973C436.117,11972.8 435.856,11972.6 435.496,11972.6ZM443.741,11977.1L441.031,11977.1L439.052,11971.1L441.709,11971.1L442.524,11975.5L443.508,11971.1L445.625,11971.1L446.662,11975.4L447.456,11971.1L450.017,11971.1L448.028,11977.1L445.413,11977.1L444.863,11974.9L444.588,11973.3L444.556,11973.3L444.28,11974.9L443.741,11977.1Z" style="fill:rgb(254,254,254);"/>
    </g>
    <g transform="matrix(1,0,0,1,-374.999,-11922.8)">
        <path d="M406.914,11922.8L451.022,11922.8L451.022,11961.4C451.022,11964.1 449.67,11966.4 447.325,11967.7L428.968,11978L410.611,11967.7C408.265,11966.4 406.914,11964.1 406.914,11961.4L406.914,11922.8Z" style="fill:rgb(40,52,145);"/>
    </g>
    <g transform="matrix(1,0,0,1,-374.999,-11929.9)">
        <path d="M420.451,11936.5L437.311,11936.5L430.519,11952.3L446.3,11945.5L446.3,11962.4L430.519,11955.6L437.311,11971.4L420.451,11971.4L427.242,11955.6L411.461,11962.4L411.461,11945.5L427.242,11952.3L420.451,11936.5Z" style="fill:rgb(254,254,254);"/>
    </g>
</svg>
